<?xml version="1.0" encoding="UTF-8" standalone="no"?>
<svg width="16px" height="16px" viewBox="0 0 16 16" version="1.1" xmlns="http://www.w3.org/2000/svg" xmlns:xlink="http://www.w3.org/1999/xlink" xmlns:sketch="http://www.bohemiancoding.com/sketch/ns">
    <!-- Generator: Sketch 3.4 (15575) - http://www.bohemiancoding.com/sketch -->
    <title>pinned-tab-icon</title>
    <desc>Created with Sketch.</desc>
    <defs></defs>
    <g id="Page-1" stroke="none" stroke-width="1" fill="none" fill-rule="evenodd" sketch:type="MSPage">
        <g id="pinned-tab-icon" sketch:type="MSArtboardGroup" fill="#000000">
            <path d="M5.98571429,0.190218557 C4.92937143,-0.345369072 2.846,0.689187629 2.24771429,1.59986804 C1.98062857,2.00646598 2.00034286,2.30056907 2.00034286,2.46683711 L2.09531429,11.1056825 C2.10182857,11.2889402 2.34182857,11.5365278 2.54737143,11.6579299 C2.97525714,11.910466 9.45542857,15.8030845 9.6392,15.9132701 C9.73811429,15.9724866 9.85451429,16.000033 9.96971429,16.000033 C10.0677714,16.000033 10.1663429,15.9790845 10.2553143,15.9365278 C10.4502286,15.8443216 10.5714286,15.6655175 10.5714286,15.4713732 L10.5714286,6.39755876 C10.5714286,6.20885773 10.4569143,6.03417732 10.2704,5.9398268 L3.25965714,2.17421856 C3.33885714,2.0259299 3.65102857,1.71219794 4.22411429,1.4233732 C4.82822857,1.11920825 5.28062857,1.23401237 5.38434286,1.27277526 C5.38434286,1.27277526 12.1125714,4.73735258 12.3184571,4.84044536 C12.5234857,4.94320825 12.5274286,4.9587134 12.5274286,5.13487835 L12.5274286,13.7451876 C12.5274286,14.1745485 12.9808571,14.3505485 13.3132571,14.3505485 C13.6454857,14.3505485 14,14.0369814 14,13.7451876 L14,4.47343505 C14,4.28473402 13.8848,4.10988866 13.6989714,4.01553814 L5.98571429,0.190218557 Z" id="Fill-1" sketch:type="MSShapeGroup"></path>
        </g>
    </g>
</svg>